<?xml version="1.0" standalone="no"?>
<!DOCTYPE svg PUBLIC "-//W3C//DTD SVG 1.1//EN" "http://www.w3.org/Graphics/SVG/1.1/DTD/svg11.dtd">
<svg xmlns="http://www.w3.org/2000/svg" fill="#d91f2a" xmlns:xlink="http://www.w3.org/1999/xlink" width="260" height="188.97799682617188" viewBox="0 0 260 188.978" overflow="hidden"><g transform="matrix(0.1 0 0 -0.1 -1 190)"><path d="M10 1603C10 1300 14 1262 52 1156 100 1026 235 930 400 909 659 877 879 966 964 1135 1005 1219 1009 1260 1010 1588L1010 1900 855 1900 701 1900 698 1613C695 1289 697 1299 615 1246 583 1225 564 1220 512 1220 435 1220 387 1243 350 1297 325 1333 325 1334 322 1617L319 1900 165 1900 10 1900 10 1603Z"/><path d="M1170 1842C1170 1786 1182 1770 1225 1770 1271 1770 1282 1783 1288 1839 1292 1881 1290 1890 1276 1890 1264 1890 1260 1880 1260 1845 1260 1813 1255 1798 1243 1792 1212 1776 1200 1789 1200 1841 1200 1878 1196 1890 1185 1890 1174 1890 1170 1878 1170 1842Z" fill="#FFFFFF"/><path d="M1320 1830C1320 1783 1323 1770 1335 1770 1345 1770 1350 1780 1350 1800 1350 1817 1354 1830 1360 1830 1365 1830 1376 1817 1385 1800 1411 1749 1430 1761 1430 1830 1430 1874 1426 1890 1416 1890 1407 1890 1404 1882 1408 1865 1411 1847 1408 1840 1396 1840 1387 1840 1374 1851 1368 1865 1362 1879 1349 1890 1338 1890 1323 1890 1320 1882 1320 1830Z" fill="#FFFFFF"/><path d="M1470 1830C1470 1783 1473 1770 1485 1770 1497 1770 1500 1783 1500 1830 1500 1877 1497 1890 1485 1890 1473 1890 1470 1877 1470 1830Z" fill="#FFFFFF"/><path d="M1540 1884C1540 1880 1548 1853 1557 1823 1571 1780 1578 1770 1596 1770 1614 1770 1622 1781 1638 1830 1655 1878 1656 1890 1645 1890 1637 1890 1625 1872 1619 1850 1604 1800 1586 1799 1574 1847 1569 1867 1559 1885 1553 1888 1546 1890 1540 1888 1540 1884Z" fill="#FFFFFF"/><path d="M1690 1830 1690 1770 1740 1770C1768 1770 1790 1775 1790 1780 1790 1786 1774 1790 1755 1790 1731 1790 1720 1795 1720 1804 1720 1820 1754 1835 1769 1825 1774 1822 1781 1824 1785 1830 1789 1836 1777 1840 1755 1840 1726 1840 1719 1843 1722 1858 1724 1869 1738 1877 1760 1881 1791 1887 1789 1888 1743 1889L1690 1890 1690 1830Z" fill="#FFFFFF"/><path d="M1830 1830C1830 1783 1833 1770 1845 1770 1854 1770 1860 1779 1860 1795 1860 1811 1866 1820 1875 1820 1884 1820 1896 1809 1902 1795 1908 1781 1919 1770 1927 1770 1938 1770 1938 1774 1929 1791 1921 1807 1921 1818 1930 1836 1949 1870 1929 1890 1874 1890L1830 1890 1830 1830ZM1894 1874C1919 1864 1913 1840 1885 1840 1867 1840 1860 1845 1860 1860 1860 1881 1868 1884 1894 1874Z" fill="#FFFFFF"/><path d="M1980 1875C1963 1855 1981 1834 2021 1825 2038 1821 2050 1812 2050 1803 2050 1791 2043 1789 2015 1794 1980 1801 1966 1788 1996 1776 2024 1765 2058 1770 2074 1786 2094 1806 2088 1816 2043 1838 1999 1859 2003 1876 2050 1873 2076 1871 2081 1873 2070 1880 2047 1895 1994 1892 1980 1875Z" fill="#FFFFFF"/><path d="M2120 1830C2120 1783 2123 1770 2135 1770 2147 1770 2150 1783 2150 1830 2150 1877 2147 1890 2135 1890 2123 1890 2120 1877 2120 1830Z" fill="#FFFFFF"/><path d="M2190 1830 2190 1770 2233 1770C2287 1770 2300 1783 2300 1836 2300 1883 2291 1890 2229 1890L2190 1890 2190 1830ZM2274 1864C2291 1819 2268 1771 2235 1784 2225 1788 2220 1803 2220 1835 2220 1876 2222 1880 2244 1880 2257 1880 2271 1873 2274 1864Z" fill="#FFFFFF"/><path d="M2352 1830C2336 1784 2334 1770 2345 1770 2352 1770 2360 1777 2364 1785 2367 1793 2381 1800 2395 1800 2409 1800 2423 1793 2426 1785 2430 1777 2438 1770 2445 1770 2456 1770 2454 1784 2438 1830 2421 1880 2414 1890 2395 1890 2376 1890 2369 1880 2352 1830ZM2410 1835C2410 1821 2404 1810 2397 1810 2377 1810 2372 1819 2377 1841 2385 1869 2410 1865 2410 1835Z" fill="#FFFFFF"/><path d="M2490 1831 2490 1770 2533 1770C2593 1770 2602 1779 2598 1836L2595 1885 2543 1888 2490 1891 2490 1831ZM2569 1866C2576 1858 2580 1839 2578 1823 2576 1801 2569 1794 2548 1792 2522 1789 2520 1791 2520 1828 2520 1849 2523 1870 2527 1873 2538 1884 2557 1881 2569 1866Z" fill="#FFFFFF"/><path d="M1360 1673C1323 1660 1308 1602 1330 1559 1342 1537 1408 1532 1428 1552 1441 1565 1444 1638 1432 1656 1423 1670 1380 1680 1360 1673ZM1408 1607C1411 1559 1411 1559 1383 1562 1358 1565 1355 1570 1352 1604 1349 1644 1361 1662 1390 1657 1400 1656 1406 1640 1408 1607Z" fill="#FFFFFF"/><path d="M1838 1672C1823 1669 1820 1657 1820 1604L1820 1540 1870 1540C1898 1540 1920 1545 1920 1550 1920 1556 1904 1560 1885 1560 1857 1560 1850 1564 1850 1580 1850 1596 1857 1600 1885 1600 1904 1600 1920 1605 1920 1610 1920 1616 1904 1620 1885 1620 1857 1620 1850 1624 1850 1639 1850 1656 1855 1658 1885 1653 1911 1649 1920 1651 1920 1661 1920 1675 1877 1680 1838 1672Z" fill="#FFFFFF"/><path d="M2372 1673C2331 1665 2315 1586 2349 1556 2374 1533 2443 1537 2448 1563 2450 1573 2445 1580 2436 1580 2427 1580 2420 1576 2420 1570 2420 1565 2409 1560 2395 1560 2355 1560 2346 1631 2383 1654 2397 1663 2404 1661 2414 1648 2430 1626 2450 1625 2450 1645 2450 1657 2406 1685 2397 1679 2396 1678 2385 1675 2372 1673Z" fill="#FFFFFF"/><path d="M1170 1605C1170 1554 1173 1540 1185 1540 1194 1540 1200 1549 1200 1565 1200 1587 1204 1590 1234 1590 1275 1590 1294 1611 1286 1645 1280 1668 1275 1670 1225 1670L1170 1670 1170 1605ZM1254 1637C1262 1623 1262 1617 1250 1610 1219 1590 1200 1598 1200 1631 1200 1656 1203 1661 1221 1658 1233 1656 1248 1647 1254 1637Z" fill="#FFFFFF"/><path d="M1480 1605 1480 1540 1530 1540C1558 1540 1580 1545 1580 1550 1580 1556 1564 1560 1545 1560L1510 1560 1510 1615C1510 1657 1507 1670 1495 1670 1483 1670 1480 1656 1480 1605Z" fill="#FFFFFF"/><path d="M1610 1605C1610 1554 1613 1540 1625 1540 1637 1540 1640 1554 1640 1605 1640 1656 1637 1670 1625 1670 1613 1670 1610 1656 1610 1605Z" fill="#FFFFFF"/><path d="M1675 1660C1672 1655 1678 1650 1689 1650 1708 1650 1710 1644 1710 1595 1710 1553 1713 1540 1725 1540 1737 1540 1740 1553 1740 1595 1740 1643 1743 1650 1759 1650 1770 1650 1782 1655 1785 1660 1789 1666 1770 1670 1736 1670 1706 1670 1678 1666 1675 1660Z" fill="#FFFFFF"/><path d="M1964 1645C1950 1624 1949 1611 1956 1582 1964 1548 1968 1545 2006 1542 2036 1540 2053 1544 2066 1557 2083 1574 2083 1575 2065 1578 2056 1580 2044 1577 2040 1570 2036 1564 2022 1560 2009 1562 1988 1565 1985 1571 1985 1604 1985 1651 2013 1676 2034 1648 2041 1638 2053 1630 2059 1630 2066 1630 2070 1638 2068 1648 2066 1660 2053 1666 2023 1668 1987 1671 1979 1667 1964 1645Z" fill="#FFFFFF"/><path d="M2110 1605C2110 1554 2113 1540 2125 1540 2135 1540 2140 1550 2140 1570 2140 1587 2144 1600 2150 1600 2155 1600 2166 1587 2175 1570 2202 1517 2220 1531 2220 1605 2220 1658 2217 1670 2204 1670 2192 1670 2189 1663 2192 1645 2200 1607 2182 1604 2162 1639 2153 1656 2137 1670 2128 1670 2113 1670 2110 1660 2110 1605Z" fill="#FFFFFF"/><path d="M2260 1605C2260 1554 2263 1540 2275 1540 2287 1540 2290 1554 2290 1605 2290 1656 2287 1670 2275 1670 2263 1670 2260 1656 2260 1605Z" fill="#FFFFFF"/><path d="M2503 1605C2487 1556 2485 1540 2495 1540 2502 1540 2510 1547 2514 1555 2517 1564 2532 1570 2550 1570 2570 1570 2580 1565 2580 1555 2580 1547 2587 1540 2596 1540 2607 1540 2610 1545 2605 1558 2602 1567 2594 1596 2588 1623 2578 1664 2573 1670 2551 1670 2528 1670 2522 1662 2503 1605ZM2560 1615C2560 1599 2554 1590 2545 1590 2530 1590 2524 1621 2537 1633 2550 1647 2560 1639 2560 1615Z" fill="#FFFFFF"/><path d="M1680 1453C1639 1438 1626 1375 1658 1347 1681 1326 1733 1325 1750 1345 1768 1367 1755 1376 1735 1356 1702 1324 1667 1343 1672 1390 1676 1434 1702 1450 1729 1426 1754 1403 1776 1408 1758 1432 1744 1451 1703 1462 1680 1453Z" fill="#FFFFFF"/><path d="M2402 1444C2386 1433 2380 1419 2380 1391 2380 1342 2397 1328 2452 1332L2495 1335 2498 1388C2501 1436 2499 1441 2475 1450 2439 1464 2428 1463 2402 1444ZM2470 1421C2492 1379 2469 1333 2432 1344 2410 1351 2402 1389 2416 1424 2424 1446 2457 1444 2470 1421Z" fill="#FFFFFF"/><path d="M1170 1390 1170 1330 1218 1330C1274 1330 1290 1342 1290 1386 1290 1443 1283 1450 1224 1450L1170 1450 1170 1390ZM1258 1393C1261 1351 1260 1350 1231 1350 1201 1350 1200 1351 1200 1396 1200 1440 1201 1441 1228 1438 1252 1435 1255 1431 1258 1393Z" fill="#FFFFFF"/><path d="M1330 1390 1330 1330 1381 1330C1412 1330 1429 1334 1425 1340 1422 1346 1406 1350 1389 1350 1370 1350 1360 1355 1360 1365 1360 1375 1370 1380 1390 1380 1407 1380 1420 1385 1420 1390 1420 1396 1407 1400 1390 1400 1367 1400 1360 1405 1360 1419 1360 1434 1368 1440 1398 1443 1428 1446 1426 1447 1383 1448L1330 1450 1330 1390Z" fill="#FFFFFF"/><path d="M1460 1390 1460 1330 1510 1330C1538 1330 1560 1335 1560 1340 1560 1346 1544 1350 1525 1350L1490 1350 1490 1400C1490 1438 1486 1450 1475 1450 1463 1450 1460 1437 1460 1390Z" fill="#FFFFFF"/><path d="M1800 1390 1800 1330 1850 1330C1878 1330 1900 1335 1900 1340 1900 1346 1884 1350 1865 1350 1841 1350 1830 1355 1830 1365 1830 1375 1841 1380 1865 1380 1884 1380 1900 1385 1900 1390 1900 1396 1884 1400 1865 1400 1837 1400 1830 1404 1830 1419 1830 1434 1838 1440 1868 1443 1898 1446 1896 1447 1853 1448L1800 1450 1800 1390Z" fill="#FFFFFF"/><path d="M1940 1390C1940 1343 1943 1330 1955 1330 1965 1330 1970 1340 1970 1363L1971 1395 1998 1362C2038 1314 2050 1320 2050 1390 2050 1423 2046 1450 2040 1450 2035 1450 2030 1439 2030 1425 2030 1409 2024 1400 2015 1400 2006 1400 1994 1411 1988 1425 1982 1439 1969 1450 1958 1450 1943 1450 1940 1442 1940 1390Z" fill="#FFFFFF"/><path d="M2098 1443C2118 1439 2120 1433 2120 1384 2120 1344 2124 1330 2134 1330 2145 1330 2150 1345 2152 1382 2155 1428 2158 1435 2180 1441 2196 1445 2181 1448 2140 1448 2104 1447 2085 1445 2098 1443Z" fill="#FFFFFF"/><path d="M2230 1390C2230 1343 2233 1330 2245 1330 2254 1330 2260 1339 2260 1355 2260 1371 2266 1380 2275 1380 2284 1380 2296 1369 2302 1355 2317 1322 2343 1321 2334 1354 2331 1368 2333 1386 2338 1396 2343 1405 2345 1421 2343 1431 2339 1447 2328 1450 2284 1450L2230 1450 2230 1390ZM2315 1415C2315 1401 2307 1394 2288 1392 2264 1389 2260 1392 2260 1415 2260 1438 2264 1441 2288 1438 2307 1436 2315 1429 2315 1415Z" fill="#FFFFFF"/><path d="M2200 1174C2128 1165 2014 1137 1975 1118 1909 1085 1909 1084 1937 1030 1958 989 1963 966 1963 903 1963 855 1957 811 1948 789 1929 746 1875 683 1837 660L1810 643 1838 604C1877 550 1961 495 2045 468 2106 448 2136 445 2275 445 2413 445 2447 448 2523 469L2610 493 2610 579 2610 666 2513 633C2424 602 2406 600 2315 602 2229 605 2207 609 2157 634 1975 723 1998 924 2196 991 2312 1030 2459 1016 2583 953L2610 939 2610 1029C2610 1078 2606 1122 2600 1125 2563 1148 2277 1182 2200 1174Z" /><path d="M996 1123C983 1095 952 1053 928 1029L885 984 888 712 890 440 1053 442 1215 445 1218 532 1221 618 1468 622C1698 625 1719 627 1769 648 1846 680 1876 704 1907 758 1932 801 1935 814 1935 900 1934 1009 1924 1036 1861 1093 1789 1158 1758 1162 1368 1168L1021 1172 996 1123ZM1581 951C1600 936 1605 922 1605 885 1605 848 1600 834 1581 819 1560 802 1540 800 1389 800L1220 800 1220 885 1220 970 1389 970C1540 970 1560 968 1581 951Z" fill="#FFFFFF"/><path d="M1685 346C1606 326 1535 291 1504 258 1477 229 1477 228 1500 243 1571 289 1753 285 1960 234 2100 200 2315 190 2408 214 2474 231 2548 269 2572 297 2583 312 2583 313 2565 305 2478 269 2280 277 2090 325 1963 357 1766 368 1685 346Z" /><path d="M763 190C659 169 579 138 530 99 502 77 481 56 484 53 487 50 495 52 502 58 533 82 627 100 729 100 839 100 949 85 1140 43 1426-21 1707 11 1830 120L1875 160 1825 137C1780 117 1759 115 1620 116 1493 116 1440 121 1325 144 1248 159 1149 178 1105 186 1019 201 832 203 763 190Z" /></g></svg>